<?xml version="1.0" standalone="no"?>
<!DOCTYPE svg PUBLIC "-//W3C//DTD SVG 20010904//EN"
 "http://www.w3.org/TR/2001/REC-SVG-20010904/DTD/svg10.dtd">
<svg version="1.0" xmlns="http://www.w3.org/2000/svg"
 width="400.000000pt" height="400.000000pt" viewBox="0 0 400.000000 400.000000"
 preserveAspectRatio="xMidYMid meet">

<g transform="translate(0.000000,400.000000) scale(0.100000,-0.100000)"
fill="#000000" stroke="none">
<path d="M2757 3850 c12 -85 -27 -660 -46 -682 -3 -4 -82 -28 -176 -53 -305
-83 -562 -166 -848 -272 -81 -31 -150 -53 -152 -51 -3 2 9 56 26 119 39 143
79 315 114 488 28 142 50 217 85 298 13 32 20 65 18 92 l-3 41 -55 -33 c-30
-18 -172 -93 -315 -166 -364 -187 -516 -269 -887 -477 -68 -38 -89 -61 -45
-50 25 6 964 470 1136 560 58 31 106 54 108 52 2 -2 -12 -53 -31 -112 -83
-258 -175 -587 -208 -744 -24 -116 11 -91 -328 -227 -412 -165 -659 -287 -752
-371 -58 -52 -45 -58 23 -11 100 67 287 148 759 327 102 39 202 78 223 86 31
14 37 14 37 2 0 -11 6 -9 23 6 30 27 100 54 348 138 330 110 837 260 882 260
12 0 15 -7 12 -27 -3 -16 -14 -98 -26 -183 -12 -85 -23 -157 -24 -160 -2 -3
-15 -64 -30 -135 -43 -209 -125 -431 -238 -645 -85 -160 -318 -530 -333 -530
-3 0 -79 70 -167 156 -413 398 -548 485 -1040 666 -15 6 -31 7 -35 3 -8 -8
-13 -4 193 -120 176 -99 337 -204 460 -300 122 -95 525 -478 525 -499 0 -16
-155 -220 -267 -353 -167 -198 -351 -352 -608 -506 -98 -59 -371 -211 -445
-248 -41 -21 -72 -38 -67 -38 19 -2 198 42 247 60 129 48 401 204 560 322 172
127 394 369 574 625 32 46 61 82 66 80 12 -5 186 -193 286 -308 90 -105 267
-324 399 -495 82 -105 183 -215 198 -215 6 0 19 -8 30 -18 11 -9 18 -12 15 -7
-79 179 -167 310 -417 624 -119 149 -324 382 -405 461 -25 24 -46 48 -46 53 0
4 22 40 49 80 206 306 353 590 434 842 48 149 104 443 125 652 12 122 21 174
30 178 83 32 560 119 845 155 117 14 181 27 212 42 43 21 63 52 43 64 -44 27
-729 -79 -1038 -161 -30 -8 -58 -11 -63 -6 -4 4 -3 75 3 157 20 284 29 479 24
512 -9 47 -23 49 -17 2z"/>
</g>
</svg>
